<svg width="23" height="23" viewBox="0 0 23 23" fill="none" xmlns="http://www.w3.org/2000/svg">
<path d="M6 1.25H17C18.5188 1.25 19.75 2.48122 19.75 4V19C19.75 20.5188 18.5188 21.75 17 21.75H6C4.48122 21.75 3.25 20.5188 3.25 19V4C3.25 2.48122 4.48122 1.25 6 1.25Z" stroke="url(#paint0_linear_178_76)" stroke-width="2.5"/>
<path fill-rule="evenodd" clip-rule="evenodd" d="M18.6041 2.48379L11.2083 3.97718C9.342 4.35402 8 5.9941 8 7.89805V21C8 22.1046 8.89543 23 10 23H17C19.2091 23 21 21.2091 21 19V4.44422C21 3.18062 19.8427 2.23368 18.6041 2.48379ZM11.75 16.5C12.7165 16.5 13.5 15.7165 13.5 14.75C13.5 13.7835 12.7165 13 11.75 13C10.7835 13 10 13.7835 10 14.75C10 15.7165 10.7835 16.5 11.75 16.5Z" fill="url(#paint1_linear_178_76)"/>
<defs>
<linearGradient id="paint0_linear_178_76" x1="21" y1="-1.07912e-06" x2="-2.44329" y2="6.16641" gradientUnits="userSpaceOnUse">
<stop stop-color="#5236FF"/>
<stop offset="1" stop-color="#845BFF"/>
</linearGradient>
<linearGradient id="paint1_linear_178_76" x1="21" y1="2.44353" x2="4.51837" y2="5.76234" gradientUnits="userSpaceOnUse">
<stop stop-color="#5236FF"/>
<stop offset="1" stop-color="#845BFF"/>
</linearGradient>
</defs>
</svg>
