<svg width="130" height="28" viewBox="0 0 130 28" fill="none" xmlns="http://www.w3.org/2000/svg">
<g clip-path="url(#clip0_11_38)">
<path d="M4 3.75H19C19.4142 3.75 19.75 4.08579 19.75 4.5V23.5C19.75 23.9142 19.4142 24.25 19 24.25H4C3.58579 24.25 3.25 23.9142 3.25 23.5V4.5C3.25 4.08579 3.58579 3.75 4 3.75Z" stroke="white" stroke-width="2.5"/>
<path fill-rule="evenodd" clip-rule="evenodd" d="M18.6041 4.98378L9.60414 6.80109C8.671 6.98952 8 7.80955 8 8.76153V23.5C8 24.6046 8.89543 25.5 10 25.5H19C20.1046 25.5 21 24.6046 21 23.5V6.94422C21 5.68062 19.8427 4.73368 18.6041 4.98378ZM11.75 19C12.7165 19 13.5 18.2165 13.5 17.25C13.5 16.2835 12.7165 15.5 11.75 15.5C10.7835 15.5 10 16.2835 10 17.25C10 18.2165 10.7835 19 11.75 19Z" fill="white"/>
</g>
<path d="M36.072 6.16C39.792 6.16 42.24 8.56 42.24 11.752C42.24 13.84 41.16 15.736 39.36 16.792L42.408 22H38.352L35.856 17.632H32.472V22H28.776V6.16H36.072ZM32.472 14.656H35.496C37.344 14.656 38.424 13.312 38.424 11.824C38.424 10.336 37.344 9.04 35.496 9.04H32.472V14.656ZM43.5604 16.048C43.5604 12.496 46.4164 9.736 49.9204 9.736C53.4244 9.736 56.2804 12.496 56.2804 16.048C56.2804 19.624 53.4244 22.288 49.9204 22.288C46.4164 22.288 43.5604 19.624 43.5604 16.048ZM46.7764 16.048C46.7764 17.824 48.1684 19.192 49.9204 19.192C51.6724 19.192 53.0644 17.824 53.0644 16.048C53.0644 14.272 51.6724 12.808 49.9204 12.808C48.1684 12.808 46.7764 14.272 46.7764 16.048ZM65.3314 9.76C65.8834 9.76 66.3394 9.856 66.6034 10.024L66.1954 13.216C65.8594 13 65.3074 12.856 64.6834 12.856C63.2434 12.856 61.8994 13.84 61.8994 15.88V22H58.1794V10H61.7314V11.248C62.5714 10.192 63.8194 9.76 65.3314 9.76ZM67.5838 16.048C67.5838 12.496 70.4398 9.736 73.9438 9.736C77.4478 9.736 80.3038 12.496 80.3038 16.048C80.3038 19.624 77.4478 22.288 73.9438 22.288C70.4398 22.288 67.5838 19.624 67.5838 16.048ZM70.7998 16.048C70.7998 17.824 72.1918 19.192 73.9438 19.192C75.6958 19.192 77.0878 17.824 77.0878 16.048C77.0878 14.272 75.6958 12.808 73.9438 12.808C72.1918 12.808 70.7998 14.272 70.7998 16.048ZM81.4588 16.048C81.4588 12.496 84.3148 9.736 87.8188 9.736C91.3228 9.736 94.1788 12.496 94.1788 16.048C94.1788 19.624 91.3228 22.288 87.8188 22.288C84.3148 22.288 81.4588 19.624 81.4588 16.048ZM84.6748 16.048C84.6748 17.824 86.0668 19.192 87.8188 19.192C89.5708 19.192 90.9628 17.824 90.9628 16.048C90.9628 14.272 89.5708 12.808 87.8188 12.808C86.0668 12.808 84.6748 14.272 84.6748 16.048ZM111.726 9.76C114.054 9.76 115.902 11.176 115.902 14.056L115.854 22H112.182V14.872C112.182 13.24 111.414 12.64 110.334 12.64C109.014 12.64 107.982 13.624 107.982 15.568V22H104.262V14.872C104.262 13.24 103.518 12.64 102.438 12.64C101.238 12.64 100.086 13.504 100.086 15.64V22H96.3658V10H99.6778L99.7978 12.208C100.59 10.576 102.054 9.76 103.806 9.76C105.582 9.76 107.046 10.552 107.67 12.184C108.438 10.576 109.998 9.76 111.726 9.76ZM123.57 22.264C121.146 22.264 119.13 21.592 118.002 20.032L119.946 17.872C120.666 19.168 121.962 19.6 123.522 19.624C124.722 19.624 125.514 19.264 125.514 18.664C125.514 18.16 124.794 17.824 123.234 17.512C119.682 16.792 118.314 15.712 118.314 13.696C118.314 11.728 120.162 9.76 123.834 9.76C126.594 9.76 128.13 10.6 129.186 12.16L127.122 14.104C126.402 12.928 125.418 12.376 123.93 12.376C122.658 12.376 121.962 12.88 121.962 13.408C121.962 13.984 122.538 14.368 124.338 14.728C127.674 15.4 129.138 16.408 129.138 18.448C129.138 20.632 127.314 22.264 123.57 22.264Z" fill="white"/>
<defs>
<clipPath id="clip0_11_38">
<rect y="2.5" width="23" height="23" rx="1" fill="white"/>
</clipPath>
</defs>
</svg>
