<svg width="136" height="28" viewBox="0 0 136 28" fill="none" xmlns="http://www.w3.org/2000/svg">
<g clip-path="url(#clip0_11_38)">
<path d="M4 3.75H19C19.4142 3.75 19.75 4.08579 19.75 4.5V23.5C19.75 23.9142 19.4142 24.25 19 24.25H4C3.58579 24.25 3.25 23.9142 3.25 23.5V4.5C3.25 4.08579 3.58579 3.75 4 3.75Z" stroke="white" stroke-width="2.5"/>
<path fill-rule="evenodd" clip-rule="evenodd" d="M18.6041 4.98378L9.60414 6.80109C8.671 6.98952 8 7.80955 8 8.76153V23.5C8 24.6046 8.89543 25.5 10 25.5H19C20.1046 25.5 21 24.6046 21 23.5V6.94422C21 5.68062 19.8427 4.73368 18.6041 4.98378ZM11.75 19C12.7165 19 13.5 18.2165 13.5 17.25C13.5 16.2835 12.7165 15.5 11.75 15.5C10.7835 15.5 10 16.2835 10 17.25C10 18.2165 10.7835 19 11.75 19Z" fill="white"/>
</g>
<path d="M36.072 6.16C39.792 6.16 42.24 8.56 42.24 11.752C42.24 13.84 41.16 15.736 39.36 16.792L42.408 22H38.352L35.856 17.632H32.472V22H28.776V6.16H36.072ZM32.472 14.656H35.496C37.344 14.656 38.424 13.312 38.424 11.824C38.424 10.336 37.344 9.04 35.496 9.04H32.472V14.656ZM43.5604 16.048C43.5604 12.496 46.4164 9.736 49.9204 9.736C53.4244 9.736 56.2804 12.496 56.2804 16.048C56.2804 19.624 53.4244 22.288 49.9204 22.288C46.4164 22.288 43.5604 19.624 43.5604 16.048ZM46.7764 16.048C46.7764 17.824 48.1684 19.192 49.9204 19.192C51.6724 19.192 53.0644 17.824 53.0644 16.048C53.0644 14.272 51.6724 12.808 49.9204 12.808C48.1684 12.808 46.7764 14.272 46.7764 16.048ZM65.8142 6.16C69.5342 6.16 71.9822 8.56 71.9822 11.752C71.9822 13.84 70.9022 15.736 69.1022 16.792L72.1502 22H68.0942L65.5982 17.632H62.2142V22H58.5182V6.16H65.8142ZM62.2142 14.656H65.2382C67.0862 14.656 68.1662 13.312 68.1662 11.824C68.1662 10.336 67.0862 9.04 65.2382 9.04H62.2142V14.656ZM73.3026 16.048C73.3026 12.496 76.1586 9.736 79.6626 9.736C83.1666 9.736 86.0226 12.496 86.0226 16.048C86.0226 19.624 83.1666 22.288 79.6626 22.288C76.1586 22.288 73.3026 19.624 73.3026 16.048ZM76.5186 16.048C76.5186 17.824 77.9106 19.192 79.6626 19.192C81.4146 19.192 82.8066 17.824 82.8066 16.048C82.8066 14.272 81.4146 12.808 79.6626 12.808C77.9106 12.808 76.5186 14.272 76.5186 16.048ZM87.1776 16.048C87.1776 12.496 90.0336 9.736 93.5376 9.736C97.0416 9.736 99.8976 12.496 99.8976 16.048C99.8976 19.624 97.0416 22.288 93.5376 22.288C90.0336 22.288 87.1776 19.624 87.1776 16.048ZM90.3936 16.048C90.3936 17.824 91.7856 19.192 93.5376 19.192C95.2896 19.192 96.6816 17.824 96.6816 16.048C96.6816 14.272 95.2896 12.808 93.5376 12.808C91.7856 12.808 90.3936 14.272 90.3936 16.048ZM117.445 9.76C119.773 9.76 121.621 11.176 121.621 14.056L121.573 22H117.901V14.872C117.901 13.24 117.133 12.64 116.053 12.64C114.733 12.64 113.701 13.624 113.701 15.568V22H109.981V14.872C109.981 13.24 109.237 12.64 108.157 12.64C106.957 12.64 105.805 13.504 105.805 15.64V22H102.085V10H105.397L105.517 12.208C106.309 10.576 107.773 9.76 109.525 9.76C111.301 9.76 112.765 10.552 113.389 12.184C114.157 10.576 115.717 9.76 117.445 9.76ZM129.289 22.264C126.865 22.264 124.849 21.592 123.721 20.032L125.665 17.872C126.385 19.168 127.681 19.6 129.241 19.624C130.441 19.624 131.233 19.264 131.233 18.664C131.233 18.16 130.513 17.824 128.953 17.512C125.401 16.792 124.033 15.712 124.033 13.696C124.033 11.728 125.881 9.76 129.553 9.76C132.313 9.76 133.849 10.6 134.905 12.16L132.841 14.104C132.121 12.928 131.137 12.376 129.649 12.376C128.377 12.376 127.681 12.88 127.681 13.408C127.681 13.984 128.257 14.368 130.057 14.728C133.393 15.4 134.857 16.408 134.857 18.448C134.857 20.632 133.033 22.264 129.289 22.264Z" fill="white"/>
<defs>
<clipPath id="clip0_11_38">
<rect y="2.5" width="23" height="23" rx="1" fill="white"/>
</clipPath>
</defs>
</svg>
